<?xml version="1.0" encoding="UTF-8"?>
<svg viewBox="0 0 690 552" xmlns="http://www.w3.org/2000/svg">
 <defs>
  <filter id="a" x="-.25" y="-.25" width="1.5" height="1.5">
   <feGaussianBlur in="SourceAlpha" result="blur" stdDeviation="4,000000"/>
   <feColorMatrix result="bluralpha" values="1 0 0 0 0 0 1 0 0 0 0 0 1 0 0 0 0 0 0,500000 0"/>
   <feOffset dx="8,000000" dy="8,000000" in="bluralpha" result="offsetBlur"/>
   <feMerge result="fbSourceGraphic">
    <feMergeNode in="offsetBlur"/>
    <feMergeNode in="SourceGraphic"/>
   </feMerge>
   <feColorMatrix in="fbSourceGraphic" result="fbSourceGraphicAlpha" values="0 0 0 -1 0 0 0 0 -1 0 0 0 0 -1 0 0 0 0 1 0"/>
   <feGaussianBlur in="fbSourceGraphic" result="result8" stdDeviation="10"/>
   <feComposite in="fbSourceGraphic" in2="result8" operator="in" result="result6"/>
   <feComposite in2="result6" operator="in" result="result11"/>
   <feFlood flood-color="#ffde55" result="result10"/>
   <feBlend in="result11" in2="result10" result="result12"/>
   <feComposite in="result12" in2="fbSourceGraphic" operator="in" result="fbSourceGraphic"/>
   <feColorMatrix in="fbSourceGraphic" result="fbSourceGraphicAlpha" values="0 0 0 -1 0 0 0 0 -1 0 0 0 0 -1 0 0 0 0 1 0"/>
   <feGaussianBlur in="fbSourceGraphicAlpha" result="blur" stdDeviation="4,000000"/>
   <feColorMatrix result="bluralpha" values="1 0 0 0 0 0 1 0 0 0 0 0 1 0 0 0 0 0 0,500000 0"/>
   <feOffset dx="8,000000" dy="8,000000" in="bluralpha" result="offsetBlur"/>
   <feMerge>
    <feMergeNode in="offsetBlur"/>
    <feMergeNode in="fbSourceGraphic"/>
   </feMerge>
  </filter>
 </defs>
 <g transform="matrix(.98914 0 0 1.0476 627.24 335.76)" fill="#00dc00" filter="url(#a)">
  <g transform="matrix(.48018 0 0 .48018 -316.23 468.11)" fill="#00dc00">
   <path d="m-203.74-1020.8 346.94 456.59c365.26-527.25 7.3791-11.487 633.12-887.46-636.92 583.04 1.1508-7.99-651.08 598.91l-328.98-168.04z" fill="#00dc00"/>
  </g>
 </g>
 <path d="m302.18 486.93-157.44-0.55243c-40.108 0-72.92-25.668-72.92-64.748v-285.05c0-43.331 32.644-67.387 72.92-67.387h278.42c37.384 0 66.291 33.032 66.291 67.387v113.17l55.243-54.357v-59.92c0-67.387-55.243-120.97-121.53-120.97h-278.42c-72.92 0-128.16 54.688-128.16 122.07v285.05c0 64.748 55.243 120.43 128.16 120.43h201.64l-44.194-55.129z" stroke="#000"/>
</svg>
